<svg id="Layer_1" data-name="Layer 1" xmlns="http://www.w3.org/2000/svg" xmlns:xlink="http://www.w3.org/1999/xlink" viewBox="0 0 150 150"><defs><style>.cls-1{fill:none;}.cls-2{fill:#efa407;}.cls-3{clip-path:url(#clip-path);}.cls-4{fill:#9c0b23;}.cls-5{opacity:0.3;}.cls-6{fill:#f6d541;}.cls-7{fill:#eeaa0d;}.cls-8{fill:#efab0c;}.cls-9{fill:#985008;}.cls-10{fill:#c4760c;}.cls-11{fill:#773905;}.cls-12{fill:#804008;}.cls-13{fill:#a2560b;}.cls-14{fill:#6c3306;}.cls-15{fill:#be7008;}.cls-16{fill:#d78a0c;}.cls-17{fill:#ad600d;}.cls-18{fill:#fab01c;}.cls-19{fill:#f7a924;}.cls-20{fill:#efd84e;}.cls-21{fill:#fca50a;}.cls-22{fill:#e98300;}.cls-23{fill:#f2960f;}.cls-24{fill:#ffe563;}</style><clipPath id="clip-path"><polygon class="cls-1" points="104.95 129.73 75 150 45.05 129.73 45.05 84.42 104.95 84.42 104.95 129.73"/></clipPath></defs><polygon class="cls-2" points="104.95 129.73 75 150 45.05 129.73 45.05 84.42 104.95 84.42 104.95 129.73"/><g class="cls-3"><rect class="cls-4" x="52.23" y="96.15" width="45.55" height="62.77"/></g><polygon class="cls-5" points="104.95 105.62 75 125.89 45.05 105.62 45.05 60.31 104.95 60.31 104.95 105.62"/><polygon class="cls-6" points="75 0 26.32 28.11 75 56.28 75 0"/><polygon class="cls-7" points="123.68 28.11 75 0 75 56.28 123.68 28.11"/><polygon class="cls-8" points="26.32 28.11 26.26 28.14 26.26 84.42 26.32 84.45 75 56.28 26.32 28.11"/><polygon class="cls-9" points="123.74 28.14 123.68 28.11 75 56.28 123.68 84.45 123.74 84.42 123.74 28.14"/><polygon class="cls-10" points="26.32 84.45 75 112.56 75 56.28 26.32 84.45"/><polygon class="cls-11" points="75 112.56 123.68 84.45 75 56.28 75 112.56"/><polygon class="cls-12" points="40.51 36.32 40.47 36.34 40.47 76.22 40.51 76.24 75 56.28 40.51 36.32"/><polygon class="cls-13" points="109.49 36.32 75 16.41 75 56.28 109.49 36.32"/><polygon class="cls-14" points="75 16.41 40.51 36.32 75 56.28 75 16.41"/><polygon class="cls-15" points="109.53 36.34 109.49 36.32 75 56.28 109.49 76.24 109.53 76.22 109.53 36.34"/><polygon class="cls-16" points="75 96.15 109.49 76.24 75 56.28 75 96.15"/><polygon class="cls-17" points="40.51 76.24 75 96.15 75 56.28 40.51 76.24"/><polygon class="cls-18" points="52.23 43.1 52.2 43.12 52.2 69.44 52.23 69.46 75 56.28 52.23 43.1"/><polygon class="cls-19" points="97.77 43.1 75 29.95 75 56.28 97.77 43.1"/><polygon class="cls-20" points="75 29.95 52.23 43.1 75 56.28 75 29.95"/><polygon class="cls-21" points="97.8 43.12 97.77 43.1 75 56.28 97.77 69.46 97.8 69.44 97.8 43.12"/><polygon class="cls-22" points="75 82.61 97.77 69.46 75 56.28 75 82.61"/><polygon class="cls-23" points="52.23 69.46 75 82.61 75 56.28 52.23 69.46"/><polygon class="cls-24" points="59.98 47.59 59.97 47.6 59.97 64.96 59.98 64.97 75 56.28 59.98 47.59"/><polygon class="cls-24" points="90.02 47.59 75 38.92 75 56.28 90.02 47.59"/><polygon class="cls-24" points="75 38.92 59.98 47.59 75 56.28 75 38.92"/><polygon class="cls-24" points="90.03 47.6 90.02 47.59 75 56.28 90.02 64.97 90.03 64.96 90.03 47.6"/><polygon class="cls-24" points="75 73.64 90.02 64.97 75 56.28 75 73.64"/><polygon class="cls-24" points="59.98 64.97 75 73.64 75 56.28 59.98 64.97"/></svg>